<?xml version="1.0" encoding="utf-8"?>
<!-- Generator: Adobe Illustrator 25.2.1, SVG Export Plug-In . SVG Version: 6.00 Build 0)  -->
<svg version="1.1" id="Layer_1" xmlns="http://www.w3.org/2000/svg" xmlns:xlink="http://www.w3.org/1999/xlink" x="0px" y="0px"
	 viewBox="0 0 171 30" style="enable-background:new 0 0 171 30;" xml:space="preserve">
<style type="text/css">
	.st0{fill:#DAD8F1;}
	.st1{fill:#00BCD4;}
	.st2{fill:#448AFF;}
	.st3{fill:#3F51B5;}
</style>
<g id="Layer_1_1_">
	<path class="st0" d="M54.2,8.9h-3.6v6.9h-0.1l-4.7-6.9h-3V22h3.6v-6.9h0.1l4.7,6.9h3V8.9z M55.9,22h9.4v-2.9h-5.9v-2.2h5.4V14h-5.4
		v-2.2h5.9V8.9h-9.4V22z M70.9,8.9h-4l3.9,6.5l-4,6.5h4L73,18h0.1l2.2,3.9h4.1l-4.1-6.5l3.9-6.5h-4L73,12.7l0,0L70.9,8.9z
		 M80.4,11.8h3.9V22h3.5V11.8h3.9V8.9H80.4V11.8z M93.1,22h3.6v-4.3h1.2l2.3,4.3h3.9l-2.7-4.9c1.4-0.7,2.2-1.9,2.2-3.8
		c0-2.8-1.9-4.4-4.9-4.4H93L93.1,22L93.1,22z M96.7,14.9v-3.2H98c1.2,0,2,0.5,2,1.6s-0.7,1.6-2,1.6C98,14.9,96.7,14.9,96.7,14.9z
		 M117.8,15.5c0-4.4-2.8-6.7-6.4-6.7s-6.4,2.4-6.4,6.7s2.8,6.7,6.4,6.7S117.8,19.8,117.8,15.5z M114.2,15.5c0,2.4-0.9,3.6-2.7,3.6
		c-1.8,0-2.7-1.3-2.7-3.6c0-2.4,0.9-3.6,2.7-3.6C113.2,11.8,114.2,13.1,114.2,15.5z M126.5,22l0.8-2.5h4.3l0.8,2.5h3.8l-4.3-13.1
		H127L122.6,22H126.5z M128,16.8l1.3-4.3h0.1l1.3,4.3H128z M137.4,22h6.2c2.8,0,4.6-1.6,4.6-3.7c0-1.8-1.4-3.1-3-3.1V15
		c1.5-0.3,2.5-1.4,2.5-2.9c0-2-1.6-3.3-4.6-3.3h-5.7V22z M140.9,19.2v-2.8h1.7c1.1,0,1.7,0.5,1.7,1.4s-0.6,1.3-1.8,1.3h-1.6
		L140.9,19.2L140.9,19.2z M140.9,14.2v-2.5h1.5c0.9,0,1.5,0.4,1.5,1.3s-0.7,1.3-1.6,1.3h-1.4V14.2z M149.4,22h8.8v-2.9H153V8.9h-3.6
		V22z M159.7,22h9.4v-2.9h-5.9v-2.2h5.4V14h-5.4v-2.2h5.9V8.9h-9.4V22z"/>
	<path class="st1" d="M30,15c0,3-0.9,5.9-2.5,8.3c-1.6,2.5-4,4.4-6.7,5.5C18,30,15,30.3,12.1,29.7c-2.9-0.6-5.6-2-7.7-4.1
		s-3.5-4.8-4.1-7.7C-0.3,15,0,12,1.1,9.3s3.1-5.1,5.5-6.7C9.1,0.9,12,0,15,0v9.3c-1.1,0-2.2,0.3-3.2,1c-0.9,0.6-1.7,1.5-2.1,2.6
		c-0.4,1-0.5,2.2-0.3,3.3s0.8,2.1,1.6,2.9s1.8,1.3,2.9,1.6c1.1,0.2,2.3,0.1,3.3-0.3s1.9-1.2,2.6-2.1c0.6-0.9,1-2,1-3.2L30,15L30,15z
		"/>
	<path class="st2" d="M15,0c2,0,3.9,0.4,5.7,1.1c1.8,0.8,3.5,1.9,4.9,3.3s2.5,3,3.3,4.9C29.6,11.1,30,13,30,15h-9.3
		c0-0.7-0.1-1.5-0.4-2.2C20,12.1,19.6,11.5,19,11c-0.5-0.5-1.2-0.9-1.8-1.2c-0.7-0.3-1.4-0.4-2.2-0.4C15,9.4,15,0,15,0z"/>
	<path class="st3" d="M30,15c0,2.3-0.5,4.6-1.5,6.6c-1,2.1-2.5,3.9-4.3,5.3l-5.7-7.4c0.7-0.5,1.2-1.2,1.6-2s0.6-1.6,0.6-2.5
		C20.7,15,30,15,30,15z"/>
</g>
</svg>
